<svg id="图层_5" data-name="图层 5" xmlns="http://www.w3.org/2000/svg" viewBox="0 0 64.41 86.04"><defs><style>.cls-1,.cls-5{stroke:#000;}.cls-1,.cls-2,.cls-3,.cls-5{stroke-miterlimit:10;}.cls-2,.cls-3{fill:none;stroke:#fff;}.cls-2,.cls-3,.cls-5{stroke-linecap:round;}.cls-2{stroke-width:5px;}.cls-3{stroke-width:9px;}.cls-4{fill:#fff;}.cls-5{stroke-width:2px;}</style></defs><title>My_IIUI</title><path class="cls-1" d="M51.21,42h35a7.3,7.3,0,0,1,7.38,8.76L83,118.29a10.66,10.66,0,0,1-10.14,8.76h-35a7.3,7.3,0,0,1-7.38-8.76L41.07,50.77A10.66,10.66,0,0,1,51.21,42Z" transform="translate(-29.83 -41.51)"/><path d="M68.23,84.21a1.5,1.5,0,0,0,0-3,1.5,1.5,0,0,0,0,3Z" transform="translate(-29.83 -41.51)"/><line class="cls-2" x1="23.19" y1="27.68" x2="23.19" y2="27.68"/><path class="cls-3" d="M63.17,85.16a12.41,12.41,0,0,1-10.53-17c3-7.53,12.45-12.48,19.53-10.39a11.48,11.48,0,0,1,7.9,9.88" transform="translate(-29.83 -41.51)"/><path class="cls-3" d="M64.06,85.2c-7.74,0-16,7-16.84,14.81" transform="translate(-29.83 -41.51)"/><line class="cls-3" x1="21.8" y1="30.57" x2="15.52" y2="70.26"/><line class="cls-3" x1="19.71" y1="43.7" x2="46.03" y2="43.7"/><path class="cls-4" d="M52.4,84a1.5,1.5,0,0,0,0-3,1.5,1.5,0,0,0,0,3Z" transform="translate(-29.83 -41.51)"/><path class="cls-4" d="M51.72,89.51a1.5,1.5,0,0,0,0-3,1.5,1.5,0,0,0,0,3Z" transform="translate(-29.83 -41.51)"/><path class="cls-4" d="M51.48,87a1.5,1.5,0,0,0,0-3,1.5,1.5,0,0,0,0,3Z" transform="translate(-29.83 -41.51)"/><ellipse class="cls-5" cx="52.73" cy="85.46" rx="4.51" ry="3.85" transform="translate(-73.83 16.99) rotate(-42.75)"/></svg>